<?xml version="1.0" standalone="no"?><!DOCTYPE svg PUBLIC "-//W3C//DTD SVG 1.1//EN" "http://www.w3.org/Graphics/SVG/1.1/DTD/svg11.dtd"><svg class="icon" width="200px" height="200.00px" viewBox="0 0 1024 1024" version="1.1" xmlns="http://www.w3.org/2000/svg"><path fill="#8a869e" d="M344.234065 526.428617c21.756513-7.323802 45.621037 5.236258 53.302997 28.053939 7.68196 22.817682-3.728928 47.25321-25.485441 54.578036-21.756513 7.323802-45.621037-5.236258-53.302997-28.053939S322.477552 533.753443 344.234065 526.428617zM649.338948 526.428617c21.756513-7.323802 45.621037 5.236258 53.302997 28.053939 7.68196 22.817682-3.728928 47.25321-25.485441 54.578036-21.756513 7.323802-45.621037-5.236258-53.302997-28.053939C616.171548 558.188972 627.582435 533.753443 649.338948 526.428617zM867.896686 517.980201c-2.001587-0.002047-3.959172 0.166799-5.929036 0.292666 0.265036-5.539156 0.434905-11.104919 0.440022-16.708544 0.110517-102.097306-43.210128-194.061834-112.462375-258.556731 11.57257-11.846816 20.676925-27.937283 25.360598-49.773613 16.178471-75.41255-68.387553-126.774335-68.387553-126.774335-2.364861 72.752977-127.020952 81.727373-192.289468 81.424474-23.224957-0.107447-38.930661 1.681292-38.930661 1.681292 0.12996 0.152473 0.255827 0.292666 0.384763 0.444115-178.946578 16.876366-319.065849 167.391405-319.263347 350.792435-0.007163 5.562692 0.151449 11.087523 0.401136 16.58677-1.179872-0.045025-2.337231-0.180102-3.52836-0.182149-50.2955-0.053212-91.114161 40.676421-91.169419 90.972944-0.054235 50.2955 40.677445 91.113137 90.971921 91.168396 11.277858 0.011256 22.031782-2.122337 32.003901-5.859451 37.313837 99.17679 137.76362 174.942381 261.924431 194.183608 19.788695 4.439102 41.081651 6.863315 63.272046 6.863315 24.056905 0 47.062875-2.845815 68.236104-8.024767 120.852462-20.980847 218.189348-95.738481 254.689656-193.083553 10.530844 4.270257 22.017456 6.680143 34.078143 6.693446 50.2955 0.055259 91.114161-40.674375 91.168396-90.970898C958.921819 558.852074 918.191162 518.03546 867.896686 517.980201zM509.293355 811.67215c26.069749 0.910743 47.831378-16.324804 48.604998-38.496779 0.431835-12.376888-5.788843-23.650653-15.892969-31.368428-1.899256-1.450025-3.90289-2.37407-5.804193-3.931542-1.200338-0.982374-3.13234-3.402493-3.442402-5.368264-0.270153-1.714038-1.357927-4.027733 1.178849-8.512884 1.162476-2.054799 3.419889-3.91517 5.679349-4.599761 3.193739-0.967024 5.204535-0.88209 8.380878 0.593518 2.213411 1.028423 4.234441 2.382257 6.229888 3.706415 17.581424 11.665691 28.647457 30.037107 27.938306 50.328245-1.172709 33.570583-34.122145 59.667961-73.595158 58.289568-39.473013-1.378393-70.52217-29.710672-69.349461-63.281255 0.716314-20.524452 13.314237-38.249139 32.016181-48.613184 1.730411-0.958838 3.51301-1.854231 5.343705-2.684132 3.836375-1.738597 6.53688-1.187035 9.101285-0.165776 1.816369 0.723477 3.650133 2.594081 4.494361 3.740184 1.813299 2.463098 2.080382 5.352915 1.895163 6.862291-0.532119 4.343935-2.428306 6.357801-3.850701 7.570419-1.503237 1.282203-3.900843 2.207271-5.563716 3.235694-11.246135 6.959505-18.71934 18.092054-19.166525 30.900777C462.717573 792.050254 483.223606 810.762431 509.293355 811.67215zM911.255193 620.343567c-7.27366 25.243941-26.082028 29.894867-43.215244 31.662117-28.555359 2.946099-62.469773-11.124362-62.469773-11.124362-23.926946 56.32789-59.744709 102.110609-105.391329 134.921899 0.007163-0.438998 0.026606-0.87595 0.026606-1.315972 0-66.300009-84.84641-120.04712-189.510168-120.04712s-189.511191 53.747111-189.511191 120.04712c0 0.591471 0.021489 1.179872 0.035816 1.769296-75.882248-56.612369-98.801237-134.603651-98.801237-134.603651-11.520381 7.818059-34.733059 11.208273-58.656935 11.208273-18.826787 0-44.409442-11.372002-48.777937-41.075511-4.278443-29.095665 20.370956-47.64309 40.220027-53.05638 18.826787-5.134951 48.777937-8.55791 48.777937-8.55791 12.617365-334.095147 267.773649-355.348194 354.176508-352.057241 109.36892 4.166903 156.349931-50.196239 156.349931-50.196239 38.005592 55.677067-33.021068 101.031021-33.021068 101.031021 152.322198 122.371048 133.414569 300.540937 133.414569 300.540937 35.166941 1.965771 58.272171 7.52744 72.535013 14.373359C906.137639 572.84067 918.937153 593.682347 911.255193 620.343567z" /></svg>