<?xml version="1.0" standalone="no"?><!DOCTYPE svg PUBLIC "-//W3C//DTD SVG 1.1//EN" "http://www.w3.org/Graphics/SVG/1.1/DTD/svg11.dtd"><svg class="icon" width="200px" height="200.00px" viewBox="0 0 1024 1024" version="1.1" xmlns="http://www.w3.org/2000/svg"><path fill="#8a869e" d="M170.149649 744.766532 246.472772 744.766532C253.030612 734.613429 261.892558 725.813009 272.419617 718.958466L272.419617 691.995983C272.419617 653.927441 301.867709 622.201795 340.553991 615.671832 323.87954 566.649136 309.513858 512.402787 308.856209 469.687806L170.149649 469.687806 170.149649 744.766532 170.149649 744.766532ZM683.433571 615.671832C722.119854 622.201795 751.567944 653.93224 751.567944 691.995983L751.567944 718.958466C762.095005 725.813009 770.96006 734.613429 777.51479 744.766532L853.83636 744.766532 853.83636 469.687806 715.131354 469.687806C714.473704 512.402787 700.108022 566.649136 683.433571 615.671832L683.433571 615.671832ZM862.656328 184.977223C875.667842 184.977223 886.213557 174.13339 886.213557 160.755278 886.213557 147.377167 875.667842 136.533333 862.656328 136.533333L512.382464 136.533333 511.605098 136.533333 161.331235 136.533333C148.321276 136.533333 137.775561 147.377167 137.775561 160.755278 137.775561 174.13339 148.321276 184.977223 161.331235 184.977223L170.149649 184.977223 170.149649 447.515668 309.837242 447.515668C310.081334 445.045346 310.799618 440.414892 312.907828 435.637338 317.556463 425.100496 325.833832 414.005633 339.558965 406.717784 447.026387 349.652551 495.902351 217.745362 506.636189 184.975624L511.606654 184.975624 512.384017 184.975624 517.354482 184.975624C528.08832 217.745362 576.96584 349.650952 684.433261 406.717784 698.155284 414.005633 706.432655 425.100496 711.082844 435.637338 713.189499 440.413293 713.909337 445.043747 714.156541 447.515668L853.842579 447.515668 853.842579 184.977223 862.656328 184.977223 862.656328 184.977223ZM644.538955 439.084596 552.953074 425.397894 511.993781 340.046277 471.034488 425.397894 379.448606 439.084596 445.720416 505.519462 430.076749 599.329335 511.993781 555.039423 593.910811 599.329335 578.268699 505.519462 644.538955 439.084596ZM516.52581 716.398602C535.928808 716.398602 553.738213 722.527239 567.601715 732.69633L567.601715 689.859833C567.601715 664.673741 544.419174 644.257212 515.82152 644.257212L510.645832 644.257212C482.049731 644.257212 458.868746 664.675342 458.868746 689.859833L458.868746 733.044893C472.794439 722.671142 490.776416 716.398602 510.398631 716.398602L516.52581 716.398602 516.52581 716.398602ZM360.855621 644.258813 355.681489 644.258813C327.083833 644.258813 303.902847 664.67854 303.902847 689.861431L303.902847 719.36299C311.164979 717.445891 318.851551 716.398602 326.810201 716.398602L332.938936 716.398602C370.647294 716.398602 402.321756 739.531687 410.693963 770.52983 411.947073 766.5981 412.632708 762.460112 412.632708 758.173423L412.632708 689.855034C412.634263 664.673741 389.453277 644.258813 360.855621 644.258813L360.855621 644.258813ZM697.174252 716.398602C705.136012 716.398602 712.82103 717.441096 720.081606 719.36299L720.081606 689.861431C720.081606 664.67854 696.900622 644.258813 668.304521 644.258813L663.130385 644.258813C634.534284 644.258813 611.35019 664.67854 611.35019 689.861431L611.35019 758.17982C611.35019 762.466505 612.035826 766.606094 613.290489 770.536226 621.662696 739.534886 653.33716 716.404999 691.045516 716.404999L697.172698 716.404999 697.172698 716.398602 697.174252 716.398602ZM516.52581 742.109136 510.400184 742.109136C476.522676 742.109136 449.058416 765.079132 449.058416 793.41668L449.058416 870.281264C449.058416 898.618812 476.522676 921.588808 510.400184 921.588808L516.52581 921.588808C550.404878 921.588808 577.867581 898.618812 577.867581 870.281264L577.867581 793.41668C577.867581 765.079132 550.404878 742.109136 516.52581 742.109136L516.52581 742.109136ZM332.940491 742.109136 326.811756 742.109136C292.934245 742.109136 265.471541 765.079132 265.471541 793.41668L265.471541 870.281264C265.471541 898.618812 292.934245 921.588808 326.811756 921.588808L332.940491 921.588808C366.819556 921.588808 394.28226 898.618812 394.28226 870.281264L394.28226 793.41668C394.28226 765.079132 366.819556 742.109136 332.940491 742.109136L332.940491 742.109136ZM697.174252 742.109136 691.050182 742.109136C657.168005 742.109136 629.705301 765.079132 629.705301 793.41668L629.705301 870.281264C629.705301 898.618812 657.168005 921.588808 691.050182 921.588808L697.174252 921.588808C731.053315 921.588808 758.516023 898.618812 758.516023 870.281264L758.516023 793.41668C758.516023 765.079132 731.053315 742.109136 697.174252 742.109136L697.174252 742.109136Z" /></svg>