<?xml version="1.0" standalone="no"?><!DOCTYPE svg PUBLIC "-//W3C//DTD SVG 1.1//EN" "http://www.w3.org/Graphics/SVG/1.1/DTD/svg11.dtd"><svg t="1489401658490" class="icon" style="" viewBox="0 0 1024 1024" version="1.1" xmlns="http://www.w3.org/2000/svg" p-id="8743" xmlns:xlink="http://www.w3.org/1999/xlink" width="200" height="200"><defs><style type="text/css"></style></defs><path d="M650.708846 44.163365C662.282386 44.163365 672.70339 51.215545 677.080552 61.996685 677.401795 62.761409 692.141739 97.799309 756.704451 210.100083 792.528994 272.377481 818.74866 334.539571 841.861218 389.360128 862.075758 437.319953 881.152975 482.602715 903.735052 521.482713 920.520168 550.422435 921.487262 582.229582 906.426027 608.759832 888.940154 639.53684 851.84668 659.41522 811.890786 659.41522 788.115212 659.41522 766.082926 652.763351 747.099526 640.471255L743.879241 910.948415C742.893812 948.71886 720.917602 1019.387514 644.740437 1019.387514 616.019529 1018.967625 593.152829 1009.333019 576.879811 991.517096 549.790086 961.869224 549.810566 919.989087 550.206269 910.278334L546.889972 789.128343C534.558525 794.536862 520.462238 797.328145 504.814543 797.328145 464.859721 796.888678 436.255305 784.789124 418.351104 761.277503 414.297381 755.982117 411.096503 750.47678 408.595261 744.934463 393.760475 751.66248 376.633588 754.607143 355.662165 753.058119 327.056628 751.032647 303.488049 739.505274 287.480247 719.721531 280.052053 710.48941 274.747782 700.166227 271.056311 689.481894 255.61561 696.400277 237.447266 697.912315 217.972297 693.535022 147.534946 677.707596 134.370158 603.617821 137.229312 565.386152L136.98243 450.829292C136.829318 446.033198 133.706021 312.399662 211.020605 179.473193 263.761822 88.771691 275.355843 67.441103 277.876443 62.58627 278.954569 59.738424 280.527531 57.023283 282.536034 54.57683 288.295302 47.601883 297.275977 43.56725 306.196285 44.217754L650.708846 44.163365 650.708846 44.163365ZM811.890786 601.899106C831.157687 601.899106 849.686138 592.93458 856.961219 580.146454 861.849356 571.524584 861.052635 561.833413 854.517126 550.537738 830.11623 508.483555 810.337231 461.556044 789.384143 411.876411 765.816637 355.984374 741.453483 298.179994 707.389489 238.982149 664.462336 164.320197 642.863445 122.651092 632.615985 101.680567L321.598171 101.738218C312.185173 118.806821 294.396343 149.792685 260.198644 208.570641 191.106828 327.370996 193.930386 448.693945 193.968128 449.897048L194.233344 566.442403C194.233344 567.322429 194.195602 568.163294 194.12124 569.023742 193.948721 571.315727 190.04811 628.318403 230.359771 637.378653 233.657734 638.123793 236.762697 638.487118 239.530179 638.487118 244.152027 638.487118 258.096323 638.487118 265.57952 609.107929 266.944414 599.47441 268.403078 593.452373 268.403078 593.452373 271.964062 578.8857 286.059325 569.540447 300.626749 571.853097 315.309544 574.261477 325.690661 587.527148 324.534955 602.437564 324.440064 603.755973 323.83527 610.482903 321.694135 619.755271 318.2474 647.607198 321.941016 671.327671 331.658045 683.349992 335.466984 688.090604 342.51459 694.456388 359.640405 695.679069 382.543774 697.246583 398.191518 693.213038 401.280293 663.890412L400.16228 636.097229C399.555291 621.092176 410.507849 608.111509 425.321082 606.391701 440.07936 604.346646 453.75844 614.629581 456.617594 629.406198 456.957172 631.127089 459.763517 646.285527 458.41803 665.246896L459.138194 683.234684C459.250347 686.006389 458.948462 688.778094 458.285397 691.454069L458.285397 691.454069C458.285397 691.454069 453.58592 713.398174 463.646866 726.376667 472.077702 737.194793 490.209378 739.641246 503.943412 739.794627L503.961746 739.794627C522.149498 739.794627 538.915206 735.283536 544.523508 703.305606L542.951619 646.247453C542.534412 631.356616 553.427627 618.625053 568.072728 616.866089 582.793216 614.859103 596.28149 624.913603 599.350857 639.479189 599.616073 640.874828 606.208731 672.911501 601.663439 706.898593L607.233999 909.822547C607.272814 910.740646 607.253406 911.638079 607.196306 912.537683 606.81572 919.629024 608.16228 941.056429 618.903503 952.678439 624.471918 958.680893 632.620325 961.700615 643.834831 961.834413L643.834831 961.834413C684.39552 961.834413 686.745795 915.19408 686.896713 909.86062L691.02592 559.885171C691.197318 546.103886 701.029669 534.366569 714.480201 531.900533 727.85525 529.549809 741.210892 536.964223 746.136771 549.829583 764.131523 596.81475 798.117937 601.899106 811.890786 601.899106L811.890786 601.899106 811.890786 601.899106Z" p-id="8744" fill="#ffffff"></path></svg>