<?xml version="1.0" standalone="no"?><!DOCTYPE svg PUBLIC "-//W3C//DTD SVG 1.1//EN" "http://www.w3.org/Graphics/SVG/1.1/DTD/svg11.dtd"><svg t="1489401073879" class="icon" style="" viewBox="0 0 1024 1024" version="1.1" xmlns="http://www.w3.org/2000/svg" p-id="3719" xmlns:xlink="http://www.w3.org/1999/xlink" width="200" height="200"><defs><style type="text/css"></style></defs><path d="M844.3392 914.7392 168.8064 914.7392l-1.6384-19.8656c-3.072-37.7344-41.1648-310.784-51.2-382.3616C51.0464 502.6304 0.9216 445.5936 0.9216 377.2416c0-75.3664 60.5696-136.704 135.0144-136.704s135.0144 61.2864 135.0144 136.704c0 3.328-0.1024 6.7072-0.3584 10.0352l79.7696 32.3584 66.4064-134.8608C390.656 259.3792 376.0128 224.512 376.0128 186.8288c0-75.3664 60.5696-136.704 135.0144-136.704s135.0144 61.2864 135.0144 136.704c0 37.7344-14.6944 72.5504-40.7552 97.9968l66.4064 134.8608 79.7696-32.3584c-0.256-3.328-0.3584-6.7072-0.3584-10.0352 0-75.3664 60.5696-136.704 135.0144-136.704s135.0144 61.2864 135.0144 136.704c0 68.4032-50.2272 125.4912-115.3024 135.2192L844.3392 914.7392zM208.3328 871.4752l598.6816 0 61.184-400.64 18.5344-0.1536c50.1248-0.3584 90.9312-42.2912 90.9312-93.4912 0-51.5072-41.0624-93.44-91.5968-93.44-50.5344 0-91.5968 41.9328-91.5968 93.44 0 6.5024 0.6656 13.0048 1.9968 19.3536l3.6352 17.6128-149.6064 60.7232-99.584-202.1888 14.4384-10.7008c23.6544-17.6128 37.2224-45.056 37.2224-75.2128 0-51.5072-41.0624-93.44-91.5968-93.44-50.5344 0-91.5968 41.9328-91.5968 93.44 0 30.208 13.568 57.6 37.2224 75.2128L471.04 272.7424 371.5072 474.9312 221.9008 414.208l3.6352-17.6128C226.816 390.2976 227.5328 383.744 227.5328 377.2416c0-51.5072-41.0624-93.44-91.5968-93.44-50.5344 0-91.5968 41.9328-91.5968 93.44 0 51.1488 40.8064 93.0816 90.9312 93.4912l18.7392 0.1536 2.6112 18.4832C158.4128 502.5792 198.1952 785.4592 208.3328 871.4752z" p-id="3720" fill="#ffffff"></path></svg>